<?xml version="1.0" encoding="utf-8"?>
<!-- Generator: Adobe Illustrator 25.0.0, SVG Export Plug-In . SVG Version: 6.00 Build 0)  -->
<svg version="1.1" id="Calque_2" xmlns="http://www.w3.org/2000/svg" xmlns:xlink="http://www.w3.org/1999/xlink" x="0px" y="0px"
	 viewBox="0 0 354.33 77.95" style="enable-background:new 0 0 354.33 77.95;" xml:space="preserve">
<style type="text/css">
	.st0{fill:#FFFFFF;}
	.st1{fill:#B40024;}
</style>
<rect class="st0" width="354.33" height="77.95"/>
<g>
	<path class="st1" d="M135.5,36.9c-3.61-6.09-5.61-9.29-6.7-11.1c-0.11-0.15-0.29-0.15-0.39,0.01c-1.21,1.97-2.76,4.48-6.75,11.09
		l-2.07,3.31c-0.08,0.14-0.01,0.34,0.19,0.35h17.55c0.21-0.01,0.26-0.24,0.18-0.35L135.5,36.9z"/>
	<path class="st1" d="M201.41,27.82c0-7.05-6.79-7.77-13.59-7.77c-1.57,0-8.86,0.06-11.19,0.12c-0.15,0.01-0.23,0.07-0.24,0.24
		v16.84c0,0.13,0.08,0.17,0.25,0.17h9.09C193.12,37.42,201.41,37.16,201.41,27.82z"/>
	<path class="st1" d="M349.29,29.97h-0.84c-0.14,0-0.21-0.07-0.25-0.18c-1.67-5.86-6.32-10.47-16.34-10.47
		c-9.34,0-14.11,2.81-14.11,6.99c0,4.57,3.72,6.47,12.41,7.9l4.05,0.72c5.16,0.91,9.99,1.83,13.72,3.59
		c3.37,1.6,5.75,3.81,6.41,6.94V0H0v36.53c1.51-10.75,14.07-18.9,31.33-18.9c10.12,0,16.99,2.22,20.81,3.66
		c0.11,0.05,0.15,0.13,0.14,0.23l-0.82,9.17c-0.01,0.1-0.1,0.2-0.2,0.2h-0.78c-0.1,0-0.17-0.06-0.2-0.16
		c-2.46-6.96-8.77-11.27-18.95-11.27c-14.24,0-22.08,7.12-22.08,19.07c0,11.89,9.01,19.14,22.01,19.14
		c9.48,0,17.15-3.42,19.55-12.43c0.02-0.07,0.1-0.16,0.21-0.16l0.75,0.04c0.12,0.01,0.2,0.09,0.2,0.21l0.06,9.83
		c0,0.1-0.05,0.18-0.13,0.21C47.9,57,41.47,59.43,31.26,59.43C12.43,59.43,1.39,52.26,0,41.17v36.78h354.33V49.17
		c-1.31,6.99-10.04,10.26-23.39,10.26c-10.99,0-18.79-2.75-21.6-3.95c-0.06-0.02-0.08-0.07-0.08-0.12l0.89-10.08
		c0.02-0.15,0.12-0.21,0.23-0.22h0.79c0.12,0,0.19,0.07,0.22,0.17c2.66,8.95,10.78,12.43,19.54,12.43c9.28,0,16.53-2.28,16.53-7.57
		c0-5.75-6.86-6.86-15.81-8.49l-3.85-0.65c-9.99-1.83-17.37-4.11-17.37-11.89c0-7.64,9.34-11.43,21.49-11.43
		c7.74,0,13.15,1.29,18.35,2.92c0.05,0.01,0.06,0.05,0.06,0.08l-0.82,9.14C349.5,29.88,349.41,29.97,349.29,29.97z M101.47,58.77
		c-0.14,0-0.38-0.01-0.69-0.02c-0.54-0.01-1.31-0.03-2.24-0.04c-0.93-0.02-2.02-0.03-3.2-0.05c-1.18-0.01-2.44-0.02-3.71-0.02H69.76
		c-0.7,0-1.42,0-2.18,0c-0.75,0-1.53,0.01-2.35,0.01c-0.82,0.01-1.67,0.02-2.57,0.04c-0.83,0.02-1.7,0.04-2.61,0.07
		c-0.11,0-0.23-0.09-0.23-0.23v-0.8c0-0.21,0.19-0.23,0.19-0.23s1.07-0.18,1.52-0.32c0.51-0.15,0.95-0.33,1.34-0.54
		c0.39-0.21,0.73-0.46,1.03-0.74c0.29-0.28,0.54-0.59,0.76-0.93c0.24-0.41,0.44-0.85,0.59-1.33c0.15-0.48,0.26-0.99,0.34-1.55
		c0.08-0.55,0.12-1.15,0.15-1.79c0.03-0.64,0.04-1.33,0.04-2.06v-19.4c0-0.73-0.01-1.42-0.04-2.06c-0.03-0.64-0.07-1.24-0.15-1.79
		c-0.08-0.56-0.19-1.07-0.34-1.55c-0.15-0.48-0.34-0.92-0.59-1.33c-0.21-0.34-0.46-0.65-0.76-0.93c-0.3-0.28-0.63-0.52-1.03-0.74
		c-0.39-0.21-0.84-0.39-1.34-0.54c-0.45-0.13-0.95-0.24-1.51-0.32c-0.21-0.04-0.2-0.23-0.21-0.23v-0.3v-0.16v-0.34
		c0.01-0.22,0.23-0.23,0.23-0.23c0.97,0.03,1.89,0.05,2.76,0.07c0.88,0.02,1.71,0.03,2.51,0.04c0.8,0.01,1.56,0.01,2.3,0.01
		c0.74,0,1.45,0,2.13,0c1.15,0,2.19,0,3.14-0.01c0.95-0.01,1.8-0.02,2.58-0.03c0.78-0.01,1.47-0.03,2.1-0.04
		c0.54-0.01,1.49-0.04,1.49-0.04s0.21,0,0.23,0.23v0.79c0.01,0.16-0.14,0.22-0.18,0.23c-0.56,0.08-1.07,0.19-1.53,0.32
		c-0.51,0.15-0.95,0.33-1.34,0.54c-0.39,0.21-0.73,0.46-1.02,0.74c-0.29,0.28-0.54,0.59-0.76,0.93c-0.24,0.41-0.44,0.85-0.59,1.33
		c-0.15,0.48-0.26,0.99-0.34,1.55c-0.08,0.55-0.12,1.15-0.15,1.79c-0.03,0.64-0.04,1.33-0.04,2.06v19.4c0,1.55,0.06,2.88,0.29,4
		c0.23,1.12,0.62,2.03,1.27,2.74c0.66,0.71,1.58,1.24,2.88,1.58s2.96,0.51,5.1,0.51h1.63c2.96,0,5.45-0.28,7.59-0.81
		c2.14-0.53,3.92-1.31,5.46-2.31c1.53-1,2.82-2.22,3.96-3.62c1.11-1.37,2.09-2.91,3.03-4.6c0.07-0.11,0.17-0.12,0.25-0.11l0.13,0.03
		l0.29,0.07l0.35,0.08v0c0.2,0.05,0.18,0.25,0.17,0.28l-0.97,3.01l-3.08,9.54C101.67,58.64,101.63,58.77,101.47,58.77z
		 M160.91,58.54c-0.01,0.22-0.21,0.23-0.21,0.23s-7.22-0.13-10.5-0.13c-3.33,0-6.72,0.13-10.42,0.13c-0.09,0.01-0.22-0.07-0.22-0.24
		v-0.81c0,0,0-0.18,0.18-0.22c3.52-0.53,4.91-1.57,4.91-3.37c0-1.96-1.37-4.11-3.14-7.12l-2.65-4.48c-0.07-0.11-0.17-0.15-0.28-0.16
		h-20.09c-0.16,0-0.21,0.08-0.26,0.17l-1.34,2.38c-1.76,3.14-3.07,5.68-3.07,7.84c0,2.18,1.2,3.92,4.66,4.73
		c0.12,0.03,0.17,0.12,0.18,0.22c0,0.11,0,0.54,0,0.82c-0.01,0.23-0.22,0.24-0.22,0.24s-4.66-0.12-7.82-0.12
		c-3.28,0-4.98,0.06-6.43,0.12c-0.13,0-0.22-0.1-0.23-0.22v-0.84c0-0.05,0.04-0.16,0.15-0.21c2.09-0.57,5.2-3.69,10.17-11.91
		l10.84-17.57c3.92-6.43,5.25-8.87,6.53-11c0.04-0.07,0.07-0.1,0.19-0.1c0.11,0,0.33,0,0.37,0c0.12,0,0.16,0.01,0.2,0.07
		c0.01,0.01,0.02,0.02,0.02,0.02s3.32,5.46,6.09,10.23l12.21,20.84c2.96,5.15,5.67,8.9,10,9.45c0.2,0.04,0.19,0.24,0.19,0.24V58.54z
		 M216.11,58.54c-0.01,0.13-0.09,0.23-0.21,0.23c-2.62-0.06-4.25-0.06-7.36-0.06h-3c-1.5,0-3.66-5.09-5.35-9.4
		c-2.29-5.94-5.81-10.12-15.68-10.12c-1.67,0-6.36,0.06-7.87,0.07c-0.14,0-0.24,0.07-0.23,0.27v8.74c0,2.94,0.13,5.1,1.11,6.73
		c0.83,1.34,2.22,2.18,4.65,2.52c0.12,0.02,0.18,0.13,0.18,0.23v0.79c-0.01,0.23-0.22,0.24-0.22,0.24s-6.37-0.12-9.31-0.12
		c-2.75,0-5.83,0-9.7,0.12c-0.09,0-0.23-0.06-0.23-0.24v-0.8c0.01-0.12,0.1-0.2,0.2-0.22c2.43-0.34,3.81-1.18,4.64-2.52
		c0.98-1.63,1.11-3.79,1.11-6.73v-19.4c0-2.94-0.13-5.09-1.11-6.73c-0.83-1.34-2.21-2.18-4.64-2.52c-0.12-0.03-0.19-0.1-0.19-0.23
		v-0.8c0-0.12,0.1-0.23,0.22-0.22c3.38,0.12,7.87,0.12,10.62,0.12h9.21c2.15,0,4.31-0.06,6.4-0.06c10.91,0,20.64,1.04,20.64,9.4
		c0,6.94-6.58,10.14-14.33,10.59c-0.21,0.02-0.23,0.35,0.03,0.36c7.7,0.4,9.93,3.52,12.6,10.14l0.39,0.98
		c1.55,3.61,2.97,6.58,7.28,7.66c0.1,0.03,0.16,0.11,0.17,0.22V58.54z M240.59,19.37c0,0.14-0.08,0.22-0.16,0.24
		c-2.45,0.34-3.84,1.18-4.67,2.53c-0.98,1.63-1.11,3.79-1.11,6.73v19.4c0,2.94,0.13,5.09,1.11,6.73c0.83,1.33,2.21,2.17,4.63,2.52
		c0.09,0.02,0.2,0.07,0.2,0.24c0,0,0,0,0,0v0.78c0,0.1-0.08,0.23-0.22,0.23c-3.55-0.12-6.37-0.12-9.32-0.12
		c-2.81,0-5.94,0-9.93,0.13v-1.24c2.55-0.33,3.99-1.17,4.83-2.55c0.98-1.63,1.11-3.79,1.11-6.73v-19.4c0-2.94-0.13-5.09-1.11-6.73
		c-0.83-1.34-2.21-2.18-4.64-2.52c-0.11-0.02-0.19-0.1-0.2-0.23v-0.79c0.01-0.11,0.07-0.23,0.23-0.23c3.87,0.12,6.94,0.12,9.69,0.12
		c2.94,0,5.76,0,9.31-0.12c0.12-0.01,0.22,0.09,0.22,0.22V19.37z M305.06,19.45c0,0.11-0.05,0.2-0.18,0.24
		c-2.88,0.59-4.28,1.56-5.3,3.23c-1.37,2.29-1.44,5.68-1.44,10.52v10.78c0,4.38,0.06,15.12,0.06,15.22c0,0.23-0.24,0.29-0.36,0.2
		c-0.22-0.2-0.16-0.14-0.16-0.14s-10.19-9.02-13.98-12.28l-13.73-11.89c-6.71-5.72-12.3-10.77-12.35-10.81
		c-0.1-0.09-0.3-0.04-0.3,0.14c0.03,1.43,0.12,6.94,0.12,13.94v4.96c0,4.83,0.06,8.23,1.44,10.52c1.03,1.66,2.93,2.76,5.83,3.36
		c0.11,0.03,0.18,0.11,0.18,0.24v0.87c0,0.16-0.14,0.23-0.21,0.23c-3.2-0.06-6.38-0.13-9.06-0.13c-2.41,0-4.51,0.06-7.14,0.12
		c-0.14,0.01-0.24-0.11-0.24-0.23v-0.89c0-0.08,0.06-0.19,0.18-0.22c2.9-0.6,4.68-1.7,5.7-3.36c1.37-2.29,1.44-5.68,1.44-10.52
		V23.04c0,0,0.01-0.11-0.08-0.2c-2.14-2.16-4.46-2.71-6.67-3.15c0,0-0.16-0.03-0.17-0.21v-0.9c0-0.13,0.11-0.22,0.22-0.22
		c3.86,0.12,4.66,0.12,7.1,0.12c1.67,0,4.47,0,6.43-0.06c0.04,0,0.11,0.02,0.16,0.07c0.77,0.87,4.88,4.53,10.77,9.53l14.71,12.8
		c5.03,4.25,7.29,6.39,7.98,7.07c0.13,0.1,0.31,0.04,0.31-0.15c-0.02-1.13-0.06-4.61-0.06-9.59v-4.7c0-4.84-0.07-8.23-1.44-10.52
		c-1.03-1.66-2.74-2.83-6.26-3.24c-0.15-0.03-0.2-0.14-0.2-0.24v-0.82c0-0.19,0.14-0.27,0.26-0.27c3.14,0.06,5.63,0.12,8.29,0.12
		c2.41,0,5.25-0.06,7.92-0.12c0.14,0,0.24,0.1,0.24,0.25V19.45z"/>
</g>
</svg>
