<svg xmlns="http://www.w3.org/2000/svg" width="600" height="600"><g fill="grey"><path d="M312.528 19.99c71.215 0 139.12 27.652 190.22 74.637 13.238-9.816 30.02-44.438 41.605.379 32.461 125.54 48.41 119.93-78.496 84.727-48.324-13.398-25.438-20.926-5.296-43.645-85.512-76.785-220.61-75.938-304.45 7.898-137.79 137.79-38.328 377.62 156.41 377.62 39.949 0 77.43-10.605 109.78-29.129 34.3-19.64 64.512 31.957 25.879 53.012-105.84 57.684-243.36 43.738-333.93-46.828-108.74-108.73-108.74-287.79 0-396.53 50.746-50.746 120.86-82.14 198.27-82.14l.008-.001z"/><path fill-rule="evenodd" d="M213.938 157.63h172.1c11.832 0 21.512 9.68 21.512 21.512v241.7c0 11.832-9.68 21.512-21.512 21.512h-172.1c-11.832 0-21.512-9.68-21.512-21.512v-241.7c0-11.832 9.68-21.512 21.512-21.512zm86.06 244.94c19.851 0 19.858 30.172 0 30.172-19.868 0-19.868-30.172 0-30.172zm-79.974-210.79h159.92v197.04h-159.92V191.78z"/></g></svg>